<svg width="28" height="28" viewBox="0 0 28 28" fill="none" xmlns="http://www.w3.org/2000/svg">
<path d="M19.3691 26.9277C23.6731 26.9277 27.1621 23.4387 27.1621 19.1348C27.1621 14.8308 23.6731 11.3418 19.3691 11.3418C15.0652 11.3418 11.5762 14.8308 11.5762 19.1348C11.5762 23.4387 15.0652 26.9277 19.3691 26.9277Z" stroke="#2A577E" stroke-width="1.60312" stroke-miterlimit="10"/>
<path d="M19.3691 24.1445C22.136 24.1445 24.3789 21.9016 24.3789 19.1348C24.3789 16.3679 22.136 14.125 19.3691 14.125C16.6023 14.125 14.3594 16.3679 14.3594 19.1348C14.3594 21.9016 16.6023 24.1445 19.3691 24.1445Z" fill="#FAC515" stroke="#2A577E" stroke-width="1.60312" stroke-miterlimit="10"/>
<path d="M10.4629 21.3001C5.45312 20.749 1.55664 16.5019 1.55664 11.3418C1.55664 5.80879 6.04316 1.32227 11.5762 1.32227C16.7362 1.32227 20.9834 5.21875 21.5345 10.2285" stroke="#2A577E" stroke-width="1.60312" stroke-miterlimit="10"/>
<path d="M10.4867 18.9346C6.9204 18.3377 4.20679 15.2379 4.20679 11.506C4.20679 7.34281 7.5825 3.97211 11.7407 3.97211C15.4726 3.97211 18.5724 6.68572 19.1693 10.252" stroke="#2A577E" stroke-width="1.60312" stroke-miterlimit="10"/>
<path d="M6.61646 23.0312L7.38462 24.523C8.09155 25.8924 9.77261 26.4379 11.1419 25.731L12.1328 25.2188" stroke="#2A577E" stroke-width="1.60312" stroke-miterlimit="10"/>
<path d="M5.90479 25.2856L6.61728 23.0312L8.87168 23.7549" stroke="#2A577E" stroke-width="1.60312" stroke-miterlimit="10"/>
<path d="M25.2202 10.2956L25.5208 8.65353C25.7936 7.13947 24.7916 5.6922 23.2831 5.41945L22.1865 5.21906" stroke="#2A577E" stroke-width="1.60312" stroke-miterlimit="10"/>
<path d="M27.1626 8.954L25.2199 10.2955L23.8784 8.3584" stroke="#2A577E" stroke-width="1.60312" stroke-miterlimit="10"/>
<path d="M19.3691 11.3418V14.125" stroke="#2A577E" stroke-width="1.60312" stroke-miterlimit="10"/>
<path d="M19.3691 24.1445V26.9277" stroke="#2A577E" stroke-width="1.60312" stroke-miterlimit="10"/>
<path d="M24.8799 13.6238L22.9094 15.5943" stroke="#2A577E" stroke-width="1.60312" stroke-miterlimit="10"/>
<path d="M15.8284 22.6747L13.8579 24.6452" stroke="#2A577E" stroke-width="1.60312" stroke-miterlimit="10"/>
<path d="M27.1606 19.1351H24.3774" stroke="#2A577E" stroke-width="1.60312" stroke-miterlimit="10"/>
<path d="M14.3579 19.1351H11.5747" stroke="#2A577E" stroke-width="1.60312" stroke-miterlimit="10"/>
<path d="M13.8579 13.6238L15.8284 15.5943" stroke="#2A577E" stroke-width="1.60312" stroke-miterlimit="10"/>
<path d="M22.9094 22.6747L24.8799 24.6452" stroke="#2A577E" stroke-width="1.60312" stroke-miterlimit="10"/>
<path d="M13.1897 12.1489C13.0395 11.9374 12.8224 11.7759 12.5663 11.6924L10.5179 11.0078C10.0058 10.8352 9.66064 10.3565 9.66064 9.81656V9.46588C9.66064 8.77008 10.2229 8.21344 10.9131 8.21344H12.1655C12.8613 8.21344 13.418 8.77565 13.418 9.46588" stroke="#2A577E" stroke-width="1.60312" stroke-miterlimit="10"/>
<path d="M9.66064 13.2342C9.66064 13.93 10.2229 14.4866 10.9131 14.4866" stroke="#2A577E" stroke-width="1.60312" stroke-miterlimit="10"/>
<path d="M11.5479 8.21348V6.33203" stroke="#2A577E" stroke-width="1.60312" stroke-miterlimit="10"/>
</svg>
