<svg width="28" height="28" viewBox="0 0 28 28" fill="none" xmlns="http://www.w3.org/2000/svg">
<path d="M18.6564 26.8798C22.9224 26.8798 26.3807 23.4215 26.3807 19.1555C26.3807 14.8895 22.9224 11.4312 18.6564 11.4312C14.3903 11.4312 10.932 14.8895 10.932 19.1555C10.932 23.4215 14.3903 26.8798 18.6564 26.8798Z" fill="#FDC93F" stroke="#2A577E" stroke-width="1.5" stroke-miterlimit="10"/>
<path d="M17.0004 20.8109C17.0004 21.1035 17.1166 21.3842 17.3236 21.5912C17.5305 21.7981 17.8112 21.9144 18.1038 21.9144H19.2073C19.5 21.9144 19.7807 21.7981 19.9876 21.5912C20.1945 21.3842 20.3108 21.1035 20.3108 20.8109V20.5019C20.311 20.2699 20.2381 20.0437 20.1024 19.8555C19.9667 19.6673 19.7751 19.5267 19.5549 19.4536L17.7562 18.8577C17.536 18.7846 17.3445 18.644 17.2088 18.4558C17.0731 18.2676 17.0002 18.0414 17.0004 17.8094V17.5005C17.0004 17.2078 17.1166 16.9271 17.3236 16.7202C17.5305 16.5132 17.8112 16.397 18.1038 16.397H19.2073C19.5 16.397 19.7807 16.5132 19.9876 16.7202C20.1945 16.9271 20.3108 17.2078 20.3108 17.5005" stroke="#2A577E" stroke-width="1.5" stroke-miterlimit="10"/>
<path d="M18.6566 16.3969V14.7417" stroke="#2A577E" stroke-width="1.5" stroke-miterlimit="10"/>
<path d="M18.6567 21.9141V23.5693" stroke="#2A577E" stroke-width="1.5" stroke-miterlimit="10"/>
<path d="M13.6908 19.1558H14.7943" stroke="#2A577E" stroke-width="1.5" stroke-miterlimit="10"/>
<path d="M22.5179 19.1558H23.6214" stroke="#2A577E" stroke-width="1.5" stroke-miterlimit="10"/>
<path d="M9.82821 21.3018C7.96973 21.0939 6.20774 20.3654 4.74499 19.2003C3.28224 18.0352 2.17818 16.4807 1.55986 14.7158C0.941534 12.9509 0.834076 11.0473 1.24986 9.22407C1.66564 7.4008 2.58775 5.73197 3.91009 4.40964C5.23243 3.0873 6.90126 2.16518 8.72453 1.7494C10.5478 1.33362 12.4514 1.44108 14.2163 2.0594C15.9812 2.67772 17.5356 3.78178 18.7008 5.24453C19.8659 6.70729 20.5943 8.46928 20.8023 10.3277" stroke="#2A577E" stroke-width="1.5" stroke-miterlimit="10"/>
<path d="M9.82877 17.9637C8.63071 17.7612 7.51145 17.233 6.59357 16.4369C5.67569 15.6408 4.9946 14.6074 4.62488 13.45C4.25515 12.2926 4.21106 11.0557 4.49742 9.87489C4.78379 8.69407 5.38958 7.61483 6.24843 6.75535C7.10729 5.89588 8.18609 5.28932 9.3667 5.0021C10.5473 4.71488 11.7842 4.75807 12.9419 5.12696C14.0996 5.49585 15.1334 6.17619 15.9302 7.0935C16.727 8.0108 17.256 9.12968 17.4593 10.3276" stroke="#2A577E" stroke-width="1.5" stroke-miterlimit="10"/>
<path d="M10.932 1.5V4.81043" stroke="#2A577E" stroke-width="1.5" stroke-miterlimit="10"/>
<path d="M17.955 4.40771L15.6156 6.74709" stroke="#2A577E" stroke-width="1.5" stroke-miterlimit="10"/>
<path d="M3.90857 18.4546L6.24794 16.1152" stroke="#2A577E" stroke-width="1.5" stroke-miterlimit="10"/>
<path d="M1.00037 11.4312H4.3108" stroke="#2A577E" stroke-width="1.5" stroke-miterlimit="10"/>
<path d="M3.90759 4.40771L6.24697 6.74709" stroke="#2A577E" stroke-width="1.5" stroke-miterlimit="10"/>
<path d="M6.01599 23.0176L6.77739 24.4962C6.94257 24.8201 7.17011 25.1081 7.44696 25.3437C7.72381 25.5793 8.04451 25.7579 8.3906 25.8692C8.73669 25.9804 9.10136 26.0222 9.46365 25.992C9.82593 25.9619 10.1787 25.8604 10.5016 25.6935L11.4837 25.1859" stroke="#2A577E" stroke-width="1.5" stroke-miterlimit="10"/>
<path d="M5.30994 25.2521L6.01616 23.0176L8.25071 23.7348" stroke="#2A577E" stroke-width="1.5" stroke-miterlimit="10"/>
<path d="M24.4554 10.3944L24.7533 8.73919C24.8839 8.02166 24.725 7.28161 24.3114 6.68089C23.8979 6.08018 23.2632 5.66767 22.5463 5.53359L21.4429 5.33496" stroke="#2A577E" stroke-width="1.5" stroke-miterlimit="10"/>
<path d="M26.3806 9.06448L24.4551 10.3997L23.1254 8.47412" stroke="#2A577E" stroke-width="1.5" stroke-miterlimit="10"/>
</svg>
