<svg width="29" height="29" viewBox="0 0 29 29" fill="none" xmlns="http://www.w3.org/2000/svg">
<path d="M25.1175 5.525V4.32893C25.1175 3.37728 24.7394 2.46461 24.0665 1.79169C23.3936 1.11877 22.4809 0.740723 21.5293 0.740723L10.7646 0.740723V3.13286H21.5293C21.8465 3.13286 22.1507 3.25888 22.375 3.48318C22.5993 3.70749 22.7253 4.01172 22.7253 4.32893V5.525H15.5489C14.5973 5.525 13.6846 5.90305 13.0117 6.57597C12.3387 7.24889 11.9607 8.16156 11.9607 9.11321V17.4857H10.9082L7.17642 20.7988V17.4857H3.58821C3.27099 17.4857 2.96677 17.3597 2.74246 17.1354C2.51815 16.9111 2.39214 16.6069 2.39214 16.2896V15.0936H0V16.2896C0 17.2413 0.378042 18.154 1.05096 18.8269C1.72388 19.4998 2.63656 19.8778 3.58821 19.8778H4.78428V26.1333L11.8172 19.8778H11.9607C11.9607 20.8295 12.3387 21.7422 13.0117 22.4151C13.6846 23.088 14.5973 23.4661 15.5489 23.4661H19.8428L25.1175 28.7407V23.4661C26.0691 23.4661 26.9818 23.088 27.6547 22.4151C28.3276 21.7422 28.7057 20.8295 28.7057 19.8778V10.3093C28.7057 8.40753 27.2704 5.525 25.1175 5.525ZM26.3135 19.8778C26.3135 20.1951 26.1875 20.4993 25.9632 20.7236C25.7389 20.9479 25.4347 21.0739 25.1175 21.0739H22.7253V22.9757L20.8236 21.0739H15.5489C15.2317 21.0739 14.9275 20.9479 14.7032 20.7236C14.4789 20.4993 14.3528 20.1951 14.3528 19.8778V17.4857V9.11321C14.3528 8.796 14.4789 8.49177 14.7032 8.26746C14.9275 8.04316 15.2317 7.91714 15.5489 7.91714H25.1175C25.5002 7.91714 26.3135 9.32851 26.3135 10.3093V19.8778Z" fill="#0460A9"/>
<path d="M19.2328 9.84283L15.6446 18.2153L17.8454 19.1483L18.563 17.4857H22.1512L22.8689 19.1483L25.0696 18.2153L21.4814 9.84283H19.2328ZM19.5797 15.0936L20.3332 13.3473L21.0867 15.0936H19.5797Z" fill="#0460A9"/>
<path d="M9.56856 10.3093V4.32893C9.56856 3.37728 9.19052 2.4646 8.5176 1.79169C7.84468 1.11877 6.932 0.740723 5.98035 0.740723L3.58821 0.740723C2.63656 0.740723 1.72388 1.11877 1.05096 1.79169C0.378042 2.4646 0 3.37728 0 4.32893L0 10.3093C0 11.2609 0.378042 12.1736 1.05096 12.8465C1.72388 13.5195 2.63656 13.8975 3.58821 13.8975H5.48996L7.52328 15.9428L9.2217 14.2444L8.13328 13.1679C8.57731 12.8349 8.93803 12.4034 9.18708 11.9074C9.43612 11.4113 9.56671 10.8643 9.56856 10.3093ZM2.39214 10.3093V4.32893C2.39214 4.01172 2.51815 3.70749 2.74246 3.48318C2.96677 3.25888 3.27099 3.13286 3.58821 3.13286H5.98035C6.29757 3.13286 6.60179 3.25888 6.8261 3.48318C7.05041 3.70749 7.17642 4.01172 7.17642 4.32893V10.3093C7.17642 10.6265 7.05041 10.9307 6.8261 11.155C6.60179 11.3793 6.29757 11.5054 5.98035 11.5054H3.58821C3.27099 11.5054 2.96677 11.3793 2.74246 11.155C2.51815 10.9307 2.39214 10.6265 2.39214 10.3093Z" fill="#0460A9"/>
</svg>
