<svg width="32" height="28" viewBox="0 0 32 28" fill="none" xmlns="http://www.w3.org/2000/svg">
<path d="M16.1303 1.76118L13.4226 7.66952L7.20161 8.22069C7.11096 8.22969 7.02476 8.26408 6.95303 8.31986C6.88131 8.37564 6.82701 8.45052 6.79651 8.53576C6.766 8.62101 6.76054 8.7131 6.78072 8.80132C6.80091 8.88953 6.84593 8.97024 6.91054 9.03402L11.473 13.5308L10.3358 19.3988C10.32 19.485 10.3284 19.5739 10.3601 19.6557C10.3918 19.7374 10.4455 19.809 10.5154 19.8624C10.5853 19.9159 10.6687 19.9492 10.7564 19.9587C10.8442 19.9682 10.9328 19.9536 11.0127 19.9164L16.5703 17.1471L22.1212 19.8895C22.201 19.9267 22.2897 19.9413 22.3774 19.9318C22.4652 19.9223 22.5485 19.889 22.6185 19.8355C22.6884 19.7821 22.7421 19.7105 22.7738 19.6288C22.8055 19.547 22.8139 19.4581 22.7981 19.3719L21.6541 13.5375L26.2233 9.03402C26.296 8.96975 26.3472 8.88512 26.3704 8.79131C26.3935 8.6975 26.3874 8.59893 26.353 8.50862C26.3185 8.4183 26.2572 8.3405 26.1773 8.2855C26.0973 8.23049 26.0025 8.20086 25.9052 8.20053L19.6842 7.64935L16.9765 1.74102C16.9335 1.66613 16.8709 1.6042 16.7954 1.56178C16.7198 1.51937 16.6341 1.49807 16.5473 1.50014C16.4606 1.50221 16.376 1.52757 16.3025 1.57353C16.2291 1.61949 16.1696 1.68433 16.1303 1.76118Z" fill="#FDC93F" stroke="#2A577E" stroke-width="1.5" stroke-linejoin="round"/>
<path d="M15.9994 18.994L17.9702 21.0234L16.972 26.3689C16.9581 26.4486 16.9658 26.5307 16.9942 26.6061C17.0226 26.6815 17.0707 26.7472 17.133 26.796C17.1953 26.8448 17.2695 26.8748 17.3472 26.8825C17.425 26.8902 17.5033 26.8754 17.5734 26.8398L22.4235 24.313L27.28 26.8199C27.3502 26.8555 27.4285 26.8703 27.5062 26.8626C27.584 26.8549 27.6581 26.8249 27.7205 26.7761C27.7828 26.7274 27.8308 26.6616 27.8593 26.5862C27.8877 26.5108 27.8954 26.4287 27.8815 26.349L26.8833 21.0433L30.8696 16.938C30.9281 16.8805 30.9693 16.8066 30.988 16.7254C31.0067 16.6441 31.0023 16.5589 30.9752 16.4802C30.948 16.4015 30.8994 16.3326 30.8352 16.2821C30.7711 16.2315 30.6941 16.2013 30.6137 16.1952L25.1813 15.6912L24.004 13.0383" stroke="#2A577E" stroke-width="1.5" stroke-linejoin="round"/>
<path d="M7.7448 13.0381L5.78902 17.1554L1.31391 17.5379C1.24813 17.5446 1.18567 17.5691 1.13372 17.6085C1.08178 17.6479 1.04247 17.7006 1.0203 17.7606C0.998135 17.8205 0.994013 17.8852 1.00842 17.9473C1.02283 18.0094 1.05519 18.0663 1.10176 18.1115L4.41665 21.2473L3.58793 25.3328C3.57679 25.3938 3.58334 25.4567 3.60688 25.5144C3.63043 25.5721 3.67005 25.6225 3.7214 25.66C3.77275 25.6976 3.83387 25.7208 3.89803 25.7271C3.96219 25.7335 4.02693 25.7227 4.08516 25.6961L8.06303 23.784L12.0409 25.6961C12.0987 25.7235 12.1634 25.7349 12.2276 25.7288C12.2918 25.7227 12.353 25.6994 12.4041 25.6615C12.4552 25.6237 12.4942 25.5728 12.5168 25.5147C12.5393 25.4566 12.5444 25.3935 12.5315 25.3328L11.7956 21.6871" stroke="#2A577E" stroke-width="1.5" stroke-linejoin="round"/>
</svg>
